<?xml version="1.0" encoding="UTF-8" standalone="no"?>
<svg width="14px" height="20px" viewBox="0 0 14 20" version="1.1" xmlns="http://www.w3.org/2000/svg" xmlns:xlink="http://www.w3.org/1999/xlink">
    <!-- Generator: Sketch 3.7.2 (28276) - http://www.bohemiancoding.com/sketch -->
    <title>Group</title>
    <desc>Created with Sketch.</desc>
    <defs></defs>
    <g id="Symbols" stroke="none" stroke-width="1" fill="none" fill-rule="evenodd">
        <g id="result-card" transform="translate(0.000000, -126.000000)" fill="#E36626">
            <g id="Group" transform="translate(0.000000, 126.000000)">
                <path d="M9.78535773,20 L0.915894518,20 C0.408109282,20 0,19.5951144 0,19.0956625 L0,3.63161015 C0,3.1372049 0.410059945,2.72727273 0.915894518,2.72727273 L2.72727273,2.72727273 L2.72727273,2.72251925 C2.72727273,2.22811399 3.13733267,1.81818182 3.64316725,1.81818182 L4.59091733,1.81818182 L4.59091733,1.81818182 C4.80149475,0.780799854 5.71865549,0 6.81818182,0 C7.91770818,0 8.83486891,0.780799854 9.04544627,1.81818182 L9.99319636,1.81818182 C10.5009816,1.81818182 10.9090909,2.22306747 10.9090909,2.72251925 L10.9090909,2.72727273 L12.7204691,2.72727273 C13.2282544,2.72727273 13.6363636,3.13215838 13.6363636,3.63161015 L13.6363636,16.1489941 C13.3722921,15.9126436 13.0618937,15.7269915 12.7204687,15.6073378 L12.7204687,3.63161016 L10.9090909,3.63161016 L10.9090909,4.55020803 C10.9090909,5.04461328 10.499031,5.45454545 9.99319636,5.45454545 L3.64316725,5.45454545 C3.13538201,5.45454545 2.72727273,5.0496598 2.72727273,4.55020803 L2.72727273,3.63161016 L0.915894509,3.63161016 L0.915894509,19.0956618 L9.24778091,19.0956618 C9.36755536,19.4325358 9.55167673,19.738911 9.78535773,20 L9.78535773,20 L9.78535773,20 Z M9.78535773,16.3636364 L2.72727273,16.3636364 L2.72727273,15.4545455 L10.9090909,15.4545455 L10.9090909,15.6097325 C10.4729149,15.7638985 10.087665,16.025872 9.78535773,16.3636364 L9.78535773,16.3636364 L9.78535773,16.3636364 Z M5.5304688,2.72251925 L3.64316724,2.72251925 L3.64316724,4.55020731 L9.993196,4.55020731 L9.993196,2.72251925 L8.10589482,2.72251925 C8.15508091,2.5816924 8.18181818,2.43033225 8.18181818,2.27272727 C8.18181818,1.51961171 7.57129736,0.909090909 6.81818182,0.909090909 C6.06506625,0.909090909 5.45454545,1.51961171 5.45454545,2.27272727 C5.45454545,2.43033225 5.48128273,2.5816924 5.5304688,2.72251925 L5.5304688,2.72251925 L5.5304688,2.72251925 Z M2.72727273,7.27272727 L2.72727273,8.18181818 L10.9090909,8.18181818 L10.9090909,7.27272727 L2.72727273,7.27272727 L2.72727273,7.27272727 Z M2.72727273,10 L2.72727273,10.9090909 L10.9090909,10.9090909 L10.9090909,10 L2.72727273,10 L2.72727273,10 Z M2.72727273,12.7272727 L2.72727273,13.6363636 L10.9090909,13.6363636 L10.9090909,12.7272727 L2.72727273,12.7272727 L2.72727273,12.7272727 Z M10.1882789,17.3830185 L9.54545455,18.0258428 L11.4739275,19.9543159 L14.045225,17.3830185 L13.4024006,16.7401942 L11.4739275,18.6686672 L10.1882789,17.3830185 L10.1882789,17.3830185 Z" id="Shape"></path>
            </g>
        </g>
    </g>
</svg>