<?xml version="1.0" encoding="UTF-8" standalone="no"?>
<svg width="20px" height="26px" viewBox="0 0 20 26" version="1.1" xmlns="http://www.w3.org/2000/svg" xmlns:xlink="http://www.w3.org/1999/xlink">
    <!-- Generator: Sketch 3.7.2 (28276) - http://www.bohemiancoding.com/sketch -->
    <title>Group</title>
    <desc>Created with Sketch.</desc>
    <defs></defs>
    <g id="Symbols" stroke="none" stroke-width="1" fill="none" fill-rule="evenodd">
        <g id="result-card" transform="translate(-16.000000, -70.000000)" fill="#E36626">
            <g id="card">
                <g id="Group" transform="translate(16.000000, 70.000000)">
                    <path d="M10,26 C9.83333333,26 9.66666667,25.9458333 9.55555556,25.7833333 C9.16666667,25.2958333 0.444444444,14.2458333 0.444444444,9.31666667 C0.444444444,4.17083333 4.72222222,0 10,0 C15.2777778,0 19.5555556,4.17083333 19.5555556,9.31666667 C19.5555556,14.2458333 10.8333333,25.2958333 10.4444444,25.7833333 C10.3333333,25.9458333 10.1666667,26 10,26 L10,26 Z M10,1.08333333 C5.33333333,1.08333333 1.55555556,4.76666667 1.55555556,9.31666667 C1.55555556,13.325 8.22222222,22.2083333 10,24.5375 C11.7777778,22.2083333 18.4444444,13.2708333 18.4444444,9.31666667 C18.4444444,4.76666667 14.6666667,1.08333333 10,1.08333333 L10,1.08333333 Z" id="Shape"></path>
                    <path d="M10,14.2458333 C7.22222222,14.2458333 4.94444444,12.025 4.94444444,9.31666667 C4.94444444,6.60833333 7.22222222,4.3875 10,4.3875 C12.7777778,4.3875 15.0555556,6.60833333 15.0555556,9.31666667 C15.0555556,12.025 12.7777778,14.2458333 10,14.2458333 L10,14.2458333 Z M10,5.47083333 C7.83333333,5.47083333 6.05555556,7.20416667 6.05555556,9.31666667 C6.05555556,11.4291667 7.83333333,13.1625 10,13.1625 C12.1666667,13.1625 13.9444444,11.4291667 13.9444444,9.31666667 C13.9444444,7.20416667 12.1666667,5.47083333 10,5.47083333 L10,5.47083333 Z" id="Shape"></path>
                </g>
            </g>
        </g>
    </g>
</svg>